<svg width="298" height="322" viewBox="0 0 298 322" fill="none" xmlns="http://www.w3.org/2000/svg">
<path d="M58.1999 297.05C55.2199 296.96 52.3899 295.71 50.3099 293.57C-16.7701 226.49 -16.7701 117.39 50.3099 50.31C117.39 -16.77 226.5 -16.77 293.57 50.31C298.12 54.73 298.23 61.99 293.81 66.54C289.39 71.09 282.12 71.2 277.57 66.78C277.49 66.7 277.41 66.62 277.33 66.54C219.03 8.23999 124.84 8.23998 66.54 66.54C8.23995 124.84 8.23994 219.03 66.5399 277.33C71.0899 281.75 71.1899 289.02 66.7699 293.57C64.5299 295.89 61.4199 297.15 58.1999 297.05Z" fill="black"/>
<path d="M171.94 321.02C118.75 321.02 69.4599 292.6 42.8999 246.48C16.2599 200.38 16.2599 143.51 42.8999 97.4C69.4599 51.29 118.76 22.87 171.94 22.87C178.28 22.77 183.5 27.83 183.6 34.17C183.7 40.51 178.64 45.73 172.3 45.83C172.18 45.83 172.06 45.83 171.94 45.83C126.93 45.83 85.2499 69.86 62.7899 108.87L62.7899 108.88L62.7799 108.89C40.2299 147.92 40.2299 195.96 62.7799 234.99L62.7899 235L62.7899 235.01C85.2499 274.03 126.93 298.06 171.94 298.06C178.28 297.96 183.5 303.02 183.6 309.36C183.7 315.7 178.64 320.92 172.3 321.02C172.18 321.02 172.06 321.02 171.94 321.02Z" fill="#DE0000"/>
<path d="M171.94 297.96C139.63 297.96 107.32 285.66 82.73 261.07C33.62 211.96 33.63 131.93 82.72 82.74C87.16 78.21 94.43 78.1299 98.96 82.5699C103.49 87.0099 103.57 94.2799 99.13 98.8099C99.08 98.8599 99.03 98.9099 98.97 98.9699C58.63 139.39 58.64 204.52 98.96 244.85C139.39 285.26 204.5 285.26 244.92 244.84C249.34 240.29 256.6 240.18 261.15 244.6C265.7 249.02 265.81 256.29 261.39 260.84C261.31 260.92 261.23 261 261.15 261.08C236.56 285.67 204.25 297.96 171.94 297.96Z" fill="#FFCF00"/>
</svg>
